<svg width="363" height="121" viewBox="0 0 363 121" fill="none" xmlns="http://www.w3.org/2000/svg">
<path d="M289.129 17.2681L305.01 12.7936L305.843 19.6728C309.318 15.9821 312.54 13.3282 315.508 11.7112C318.512 10.0479 321.656 9.01745 324.94 8.61986C331.674 7.80455 337.672 9.44695 342.935 13.5471C347.364 17.0354 350.049 22.6633 350.989 30.4309L356.384 74.9912L339.549 77.0295L335.97 47.4672C334.994 39.4104 333.973 34.1052 332.904 31.5515C331.877 28.9927 330.367 27.1424 328.373 26.0004C326.415 24.812 324.106 24.3789 321.446 24.701C317.996 25.1187 315.164 26.6354 312.95 29.2511C310.772 31.8205 309.45 35.1876 308.985 39.3524C308.741 41.5199 309.044 46.1157 309.895 53.1395L313.174 80.2228L296.214 82.2762L289.129 17.2681Z" fill="#F7FCEE"/>
<path d="M289.385 49.3961L235.953 62.7421C237.904 67.2316 240.896 70.453 244.928 72.4063C248.99 74.3091 253.621 74.6112 258.82 73.3126C265.035 71.7604 269.832 68.2668 273.212 62.8318L288.872 65.8708C286.619 71.6678 283.356 76.3658 279.082 79.9647C274.797 83.5233 269.304 86.1396 262.602 87.8135C252.204 90.4107 242.917 89.2766 234.741 84.4112C226.554 79.5054 221.225 72.1482 218.755 62.3396C216.223 52.2887 217.373 43.1418 222.205 34.8987C227.067 26.6052 234.412 21.2308 244.242 18.7757C254.68 16.1684 264.008 17.3781 272.225 22.405C280.432 27.3914 285.908 35.3339 288.653 46.2324L289.385 49.3961ZM269.413 40.5481C267.391 37.1488 264.465 34.7046 260.636 33.2154C256.848 31.7161 252.821 31.499 248.557 32.5643C243.926 33.7208 240.19 36.027 237.347 39.4828C235.561 41.6453 234.247 44.9983 233.405 49.5418L269.413 40.5481Z" fill="#F7FCEE"/>
<path d="M214.233 34.6666L204.492 46.0281C199.855 42.1397 195.783 40.3354 192.277 40.6153C190.357 40.7686 188.887 41.3034 187.868 42.2198C186.846 43.0947 186.383 44.1337 186.479 45.3368C186.552 46.2495 186.954 47.0733 187.684 47.8082C188.454 48.4983 190.248 49.3989 193.067 50.5099L199.576 53.1216C206.429 55.8311 211.221 58.7677 213.952 61.9316C216.683 65.0954 218.229 68.9383 218.59 73.4604C219.07 79.4759 217.238 84.6741 213.093 89.0548C208.99 93.4322 203.203 95.9191 195.731 96.5156C185.797 97.3086 177.559 94.0834 171.016 86.8401L180.625 74.6123C182.814 76.7756 185.302 78.4767 188.089 79.7155C190.915 80.9094 193.371 81.4231 195.458 81.2565C197.712 81.0766 199.485 80.3923 200.776 79.2037C202.067 78.0151 202.657 76.7155 202.544 75.3049C202.336 72.6913 199.648 70.3381 194.483 68.2454L188.494 65.8427C177.034 61.2046 170.973 54.7369 170.311 46.4396C169.884 41.0878 171.585 36.3593 175.416 32.2542C179.286 28.1042 184.455 25.771 190.925 25.2545C195.349 24.9013 199.58 25.5447 203.617 27.1847C207.693 28.7799 211.232 31.2738 214.233 34.6666Z" fill="#F7FCEE"/>
<path d="M165.808 41.1712L156.066 52.5327C151.429 48.6443 147.358 46.84 143.852 47.1199C141.932 47.2732 140.462 47.808 139.443 48.7244C138.421 49.5992 137.958 50.6382 138.054 51.8413C138.127 52.7541 138.528 53.5779 139.259 54.3128C140.028 55.0029 141.822 55.9035 144.642 57.0145L151.151 59.6262C158.004 62.3356 162.796 65.2723 165.527 68.4361C168.258 71.6 169.804 75.4429 170.165 79.9649C170.645 85.9805 168.813 91.1787 164.668 95.5594C160.565 99.9368 154.777 102.424 147.306 103.02C137.372 103.813 129.133 100.588 122.59 93.3447L132.2 81.1169C134.389 83.2802 136.877 84.9813 139.664 86.22C142.49 87.414 144.946 87.9277 147.033 87.7611C149.287 87.5811 151.06 86.8969 152.351 85.7083C153.642 84.5197 154.232 83.2201 154.119 81.8095C153.91 79.1959 151.223 76.8427 146.057 74.75L140.069 72.3473C128.609 67.7092 122.548 61.2415 121.886 52.9442C121.458 47.5924 123.16 42.8639 126.991 38.7588C130.86 34.6088 136.03 32.2756 142.499 31.7591C146.924 31.4059 151.155 32.0493 155.192 33.6893C159.268 35.2844 162.807 37.7784 165.808 41.1712Z" fill="#F7FCEE"/>
<path d="M98.0855 39.0372L116.7 34.0281L116.672 92.0303L104.096 93.0364L98.0855 39.0372Z" fill="#8CCA23"/>
<path d="M115.727 96.9406C114.453 95.6681 112.917 95.0323 111.118 95.0331C109.32 95.034 107.783 95.659 106.508 96.9083C105.233 98.1575 104.596 99.6636 104.595 101.426C104.594 103.263 105.23 104.829 106.504 106.126C107.802 107.399 109.363 108.034 111.187 108.034C112.961 108.033 114.485 107.408 115.76 106.158C117.035 104.885 117.673 103.354 117.673 101.567C117.674 99.7552 117.025 98.2131 115.727 96.9406Z" fill="#8CCA23"/>
<path d="M6.82476 30.2882C6.83232 46.9221 15.982 83.5288 25.9454 106.786L28.7405 113.31L34.4167 112.948C37.5393 112.75 40.2342 112.345 40.406 112.049C40.5778 111.752 43.0261 103.343 45.8455 93.361C48.6649 83.3794 51.1212 75.3053 51.3027 75.419C51.485 75.5327 55.2091 83.3165 59.5796 92.7175L67.5257 109.809L72.9169 109.45C75.881 109.252 78.3754 109.021 78.4601 108.936C78.8224 108.57 96.9531 39.7518 96.743 39.5401C96.5476 39.3417 79.7178 43.8347 79.4737 44.1503C79.4277 44.2085 77.3813 52.1013 74.9259 61.6891C72.4705 71.2769 70.3281 78.9871 70.1663 78.8236C70.0046 78.6601 66.1352 70.6879 61.5685 61.1093L53.2645 43.6929L51.0011 43.5064C49.7552 43.4032 47.6888 43.4789 46.4083 43.673L44.0797 44.027L38.7378 63.109C34.444 78.443 33.2958 81.922 32.8898 80.8228C29.1438 70.6849 24.6083 47.582 23.2272 31.5997L23.0777 29.871L17.6591 29.2043C14.6796 28.8379 11.0225 28.3755 9.53279 28.1777L6.82349 27.8178L6.82476 30.2882Z" fill="#F7FCEE"/>
</svg>
